<mxfile host="app.diagrams.net" modified="2021-10-31T11:30:59.469Z" agent="5.0 (Windows NT 10.0; Win64; x64) AppleWebKit/537.36 (KHTML, like Gecko) Chrome/95.0.4638.54 Safari/537.36" etag="VE5XTqzCoDBEMoQYvWCj" version="15.6.2" type="github">
  <diagram id="C5RBs43oDa-KdzZeNtuy" name="Page-1">
    <mxGraphModel dx="738" dy="511" grid="1" gridSize="10" guides="1" tooltips="1" connect="1" arrows="1" fold="1" page="1" pageScale="1" pageWidth="827" pageHeight="1169" math="0" shadow="0">
      <root>
        <mxCell id="WIyWlLk6GJQsqaUBKTNV-0" />
        <mxCell id="WIyWlLk6GJQsqaUBKTNV-1" parent="WIyWlLk6GJQsqaUBKTNV-0" />
        <mxCell id="vd-_R8V9__9j6Pd6zYEi-0" value="users" style="swimlane;fontStyle=0;childLayout=stackLayout;horizontal=1;startSize=20;horizontalStack=0;resizeParent=1;resizeParentMax=0;resizeLast=0;collapsible=1;marginBottom=0;align=center;fontSize=14;" vertex="1" parent="WIyWlLk6GJQsqaUBKTNV-1">
          <mxGeometry width="130" height="240" as="geometry" />
        </mxCell>
        <mxCell id="vd-_R8V9__9j6Pd6zYEi-1" value="userid&#xa;&#xa;" style="text;strokeColor=none;fillColor=none;spacingLeft=4;spacingRight=4;overflow=hidden;rotatable=0;points=[[0,0.5],[1,0.5]];portConstraint=eastwest;fontSize=12;" vertex="1" parent="vd-_R8V9__9j6Pd6zYEi-0">
          <mxGeometry y="20" width="130" height="30" as="geometry" />
        </mxCell>
        <mxCell id="vd-_R8V9__9j6Pd6zYEi-2" value="pw" style="text;strokeColor=none;fillColor=none;spacingLeft=4;spacingRight=4;overflow=hidden;rotatable=0;points=[[0,0.5],[1,0.5]];portConstraint=eastwest;fontSize=12;" vertex="1" parent="vd-_R8V9__9j6Pd6zYEi-0">
          <mxGeometry y="50" width="130" height="30" as="geometry" />
        </mxCell>
        <mxCell id="vd-_R8V9__9j6Pd6zYEi-3" value="username&#xa;&#xa;weight&#xa;&#xa;height&#xa;&#xa;sex&#xa;&#xa;image" style="text;strokeColor=none;fillColor=none;spacingLeft=4;spacingRight=4;overflow=hidden;rotatable=0;points=[[0,0.5],[1,0.5]];portConstraint=eastwest;fontSize=12;" vertex="1" parent="vd-_R8V9__9j6Pd6zYEi-0">
          <mxGeometry y="80" width="130" height="160" as="geometry" />
        </mxCell>
        <mxCell id="vd-_R8V9__9j6Pd6zYEi-5" value="workout" style="swimlane;fontStyle=0;childLayout=stackLayout;horizontal=1;startSize=20;horizontalStack=0;resizeParent=1;resizeParentMax=0;resizeLast=0;collapsible=1;marginBottom=0;align=center;fontSize=14;" vertex="1" parent="WIyWlLk6GJQsqaUBKTNV-1">
          <mxGeometry x="190" width="130" height="240" as="geometry" />
        </mxCell>
        <mxCell id="vd-_R8V9__9j6Pd6zYEi-6" value="workoutid&#xa;" style="text;strokeColor=none;fillColor=none;spacingLeft=4;spacingRight=4;overflow=hidden;rotatable=0;points=[[0,0.5],[1,0.5]];portConstraint=eastwest;fontSize=12;" vertex="1" parent="vd-_R8V9__9j6Pd6zYEi-5">
          <mxGeometry y="20" width="130" height="30" as="geometry" />
        </mxCell>
        <mxCell id="vd-_R8V9__9j6Pd6zYEi-7" value="part" style="text;strokeColor=none;fillColor=none;spacingLeft=4;spacingRight=4;overflow=hidden;rotatable=0;points=[[0,0.5],[1,0.5]];portConstraint=eastwest;fontSize=12;" vertex="1" parent="vd-_R8V9__9j6Pd6zYEi-5">
          <mxGeometry y="50" width="130" height="30" as="geometry" />
        </mxCell>
        <mxCell id="vd-_R8V9__9j6Pd6zYEi-8" value="workoutname&#xa;&#xa;workoutclass&#xa;&#xa;label" style="text;strokeColor=none;fillColor=none;spacingLeft=4;spacingRight=4;overflow=hidden;rotatable=0;points=[[0,0.5],[1,0.5]];portConstraint=eastwest;fontSize=12;" vertex="1" parent="vd-_R8V9__9j6Pd6zYEi-5">
          <mxGeometry y="80" width="130" height="160" as="geometry" />
        </mxCell>
        <mxCell id="vd-_R8V9__9j6Pd6zYEi-9" value="calroies" style="swimlane;fontStyle=0;childLayout=stackLayout;horizontal=1;startSize=20;horizontalStack=0;resizeParent=1;resizeParentMax=0;resizeLast=0;collapsible=1;marginBottom=0;align=center;fontSize=14;" vertex="1" parent="WIyWlLk6GJQsqaUBKTNV-1">
          <mxGeometry x="400" width="130" height="240" as="geometry" />
        </mxCell>
        <mxCell id="vd-_R8V9__9j6Pd6zYEi-10" value="calories_id" style="text;strokeColor=none;fillColor=none;spacingLeft=4;spacingRight=4;overflow=hidden;rotatable=0;points=[[0,0.5],[1,0.5]];portConstraint=eastwest;fontSize=12;" vertex="1" parent="vd-_R8V9__9j6Pd6zYEi-9">
          <mxGeometry y="20" width="130" height="30" as="geometry" />
        </mxCell>
        <mxCell id="vd-_R8V9__9j6Pd6zYEi-11" value="userid" style="text;strokeColor=none;fillColor=none;spacingLeft=4;spacingRight=4;overflow=hidden;rotatable=0;points=[[0,0.5],[1,0.5]];portConstraint=eastwest;fontSize=12;" vertex="1" parent="vd-_R8V9__9j6Pd6zYEi-9">
          <mxGeometry y="50" width="130" height="30" as="geometry" />
        </mxCell>
        <mxCell id="vd-_R8V9__9j6Pd6zYEi-12" value="calories&#xa;&#xa;date&#xa;" style="text;strokeColor=none;fillColor=none;spacingLeft=4;spacingRight=4;overflow=hidden;rotatable=0;points=[[0,0.5],[1,0.5]];portConstraint=eastwest;fontSize=12;" vertex="1" parent="vd-_R8V9__9j6Pd6zYEi-9">
          <mxGeometry y="80" width="130" height="160" as="geometry" />
        </mxCell>
        <mxCell id="vd-_R8V9__9j6Pd6zYEi-13" value="community" style="swimlane;fontStyle=0;childLayout=stackLayout;horizontal=1;startSize=20;horizontalStack=0;resizeParent=1;resizeParentMax=0;resizeLast=0;collapsible=1;marginBottom=0;align=center;fontSize=14;" vertex="1" parent="WIyWlLk6GJQsqaUBKTNV-1">
          <mxGeometry y="280" width="130" height="240" as="geometry" />
        </mxCell>
        <mxCell id="vd-_R8V9__9j6Pd6zYEi-14" value="commuid" style="text;strokeColor=none;fillColor=none;spacingLeft=4;spacingRight=4;overflow=hidden;rotatable=0;points=[[0,0.5],[1,0.5]];portConstraint=eastwest;fontSize=12;" vertex="1" parent="vd-_R8V9__9j6Pd6zYEi-13">
          <mxGeometry y="20" width="130" height="30" as="geometry" />
        </mxCell>
        <mxCell id="vd-_R8V9__9j6Pd6zYEi-15" value="userid&#xa;&#xa;&#xa;" style="text;strokeColor=none;fillColor=none;spacingLeft=4;spacingRight=4;overflow=hidden;rotatable=0;points=[[0,0.5],[1,0.5]];portConstraint=eastwest;fontSize=12;" vertex="1" parent="vd-_R8V9__9j6Pd6zYEi-13">
          <mxGeometry y="50" width="130" height="30" as="geometry" />
        </mxCell>
        <mxCell id="vd-_R8V9__9j6Pd6zYEi-16" value="heart&#xa;&#xa;commudescript&#xa;&#xa;heart" style="text;strokeColor=none;fillColor=none;spacingLeft=4;spacingRight=4;overflow=hidden;rotatable=0;points=[[0,0.5],[1,0.5]];portConstraint=eastwest;fontSize=12;" vertex="1" parent="vd-_R8V9__9j6Pd6zYEi-13">
          <mxGeometry y="80" width="130" height="160" as="geometry" />
        </mxCell>
        <mxCell id="vd-_R8V9__9j6Pd6zYEi-17" value="routine" style="swimlane;fontStyle=0;childLayout=stackLayout;horizontal=1;startSize=20;horizontalStack=0;resizeParent=1;resizeParentMax=0;resizeLast=0;collapsible=1;marginBottom=0;align=center;fontSize=14;" vertex="1" parent="WIyWlLk6GJQsqaUBKTNV-1">
          <mxGeometry x="190" y="280" width="130" height="240" as="geometry" />
        </mxCell>
        <mxCell id="vd-_R8V9__9j6Pd6zYEi-18" value="routineid" style="text;strokeColor=none;fillColor=none;spacingLeft=4;spacingRight=4;overflow=hidden;rotatable=0;points=[[0,0.5],[1,0.5]];portConstraint=eastwest;fontSize=12;" vertex="1" parent="vd-_R8V9__9j6Pd6zYEi-17">
          <mxGeometry y="20" width="130" height="30" as="geometry" />
        </mxCell>
        <mxCell id="vd-_R8V9__9j6Pd6zYEi-19" value="routinename" style="text;strokeColor=none;fillColor=none;spacingLeft=4;spacingRight=4;overflow=hidden;rotatable=0;points=[[0,0.5],[1,0.5]];portConstraint=eastwest;fontSize=12;" vertex="1" parent="vd-_R8V9__9j6Pd6zYEi-17">
          <mxGeometry y="50" width="130" height="30" as="geometry" />
        </mxCell>
        <mxCell id="vd-_R8V9__9j6Pd6zYEi-20" value="description" style="text;strokeColor=none;fillColor=none;spacingLeft=4;spacingRight=4;overflow=hidden;rotatable=0;points=[[0,0.5],[1,0.5]];portConstraint=eastwest;fontSize=12;" vertex="1" parent="vd-_R8V9__9j6Pd6zYEi-17">
          <mxGeometry y="80" width="130" height="160" as="geometry" />
        </mxCell>
        <mxCell id="vd-_R8V9__9j6Pd6zYEi-21" value="RoutineWorkout" style="swimlane;fontStyle=0;childLayout=stackLayout;horizontal=1;startSize=20;horizontalStack=0;resizeParent=1;resizeParentMax=0;resizeLast=0;collapsible=1;marginBottom=0;align=center;fontSize=14;" vertex="1" parent="WIyWlLk6GJQsqaUBKTNV-1">
          <mxGeometry x="400" y="280" width="130" height="240" as="geometry" />
        </mxCell>
        <mxCell id="vd-_R8V9__9j6Pd6zYEi-22" value="RoutineWorkoutId" style="text;strokeColor=none;fillColor=none;spacingLeft=4;spacingRight=4;overflow=hidden;rotatable=0;points=[[0,0.5],[1,0.5]];portConstraint=eastwest;fontSize=12;" vertex="1" parent="vd-_R8V9__9j6Pd6zYEi-21">
          <mxGeometry y="20" width="130" height="30" as="geometry" />
        </mxCell>
        <mxCell id="vd-_R8V9__9j6Pd6zYEi-23" value="routineid" style="text;strokeColor=none;fillColor=none;spacingLeft=4;spacingRight=4;overflow=hidden;rotatable=0;points=[[0,0.5],[1,0.5]];portConstraint=eastwest;fontSize=12;" vertex="1" parent="vd-_R8V9__9j6Pd6zYEi-21">
          <mxGeometry y="50" width="130" height="30" as="geometry" />
        </mxCell>
        <mxCell id="vd-_R8V9__9j6Pd6zYEi-24" value="workoutid" style="text;strokeColor=none;fillColor=none;spacingLeft=4;spacingRight=4;overflow=hidden;rotatable=0;points=[[0,0.5],[1,0.5]];portConstraint=eastwest;fontSize=12;" vertex="1" parent="vd-_R8V9__9j6Pd6zYEi-21">
          <mxGeometry y="80" width="130" height="160" as="geometry" />
        </mxCell>
        <mxCell id="vd-_R8V9__9j6Pd6zYEi-25" value="UserBeforeAfter" style="swimlane;fontStyle=0;childLayout=stackLayout;horizontal=1;startSize=20;horizontalStack=0;resizeParent=1;resizeParentMax=0;resizeLast=0;collapsible=1;marginBottom=0;align=center;fontSize=14;" vertex="1" parent="WIyWlLk6GJQsqaUBKTNV-1">
          <mxGeometry x="590" width="130" height="240" as="geometry" />
        </mxCell>
        <mxCell id="vd-_R8V9__9j6Pd6zYEi-26" value="userid" style="text;strokeColor=none;fillColor=none;spacingLeft=4;spacingRight=4;overflow=hidden;rotatable=0;points=[[0,0.5],[1,0.5]];portConstraint=eastwest;fontSize=12;" vertex="1" parent="vd-_R8V9__9j6Pd6zYEi-25">
          <mxGeometry y="20" width="130" height="30" as="geometry" />
        </mxCell>
        <mxCell id="vd-_R8V9__9j6Pd6zYEi-27" value="before_pic" style="text;strokeColor=none;fillColor=none;spacingLeft=4;spacingRight=4;overflow=hidden;rotatable=0;points=[[0,0.5],[1,0.5]];portConstraint=eastwest;fontSize=12;" vertex="1" parent="vd-_R8V9__9j6Pd6zYEi-25">
          <mxGeometry y="50" width="130" height="30" as="geometry" />
        </mxCell>
        <mxCell id="vd-_R8V9__9j6Pd6zYEi-28" value="afer_pic&#xa;&#xa;weight&#xa;&#xa;height&#xa;" style="text;strokeColor=none;fillColor=none;spacingLeft=4;spacingRight=4;overflow=hidden;rotatable=0;points=[[0,0.5],[1,0.5]];portConstraint=eastwest;fontSize=12;" vertex="1" parent="vd-_R8V9__9j6Pd6zYEi-25">
          <mxGeometry y="80" width="130" height="160" as="geometry" />
        </mxCell>
        <mxCell id="vd-_R8V9__9j6Pd6zYEi-29" value="UserRoutine" style="swimlane;fontStyle=0;childLayout=stackLayout;horizontal=1;startSize=20;horizontalStack=0;resizeParent=1;resizeParentMax=0;resizeLast=0;collapsible=1;marginBottom=0;align=center;fontSize=14;" vertex="1" parent="WIyWlLk6GJQsqaUBKTNV-1">
          <mxGeometry x="590" y="280" width="130" height="240" as="geometry" />
        </mxCell>
        <mxCell id="vd-_R8V9__9j6Pd6zYEi-30" value="UserRoutineId" style="text;strokeColor=none;fillColor=none;spacingLeft=4;spacingRight=4;overflow=hidden;rotatable=0;points=[[0,0.5],[1,0.5]];portConstraint=eastwest;fontSize=12;" vertex="1" parent="vd-_R8V9__9j6Pd6zYEi-29">
          <mxGeometry y="20" width="130" height="30" as="geometry" />
        </mxCell>
        <mxCell id="vd-_R8V9__9j6Pd6zYEi-31" value="userid" style="text;strokeColor=none;fillColor=none;spacingLeft=4;spacingRight=4;overflow=hidden;rotatable=0;points=[[0,0.5],[1,0.5]];portConstraint=eastwest;fontSize=12;" vertex="1" parent="vd-_R8V9__9j6Pd6zYEi-29">
          <mxGeometry y="50" width="130" height="30" as="geometry" />
        </mxCell>
        <mxCell id="vd-_R8V9__9j6Pd6zYEi-32" value="routineid&#xa;&#xa;RoutineDate&#xa;&#xa;Time" style="text;strokeColor=none;fillColor=none;spacingLeft=4;spacingRight=4;overflow=hidden;rotatable=0;points=[[0,0.5],[1,0.5]];portConstraint=eastwest;fontSize=12;" vertex="1" parent="vd-_R8V9__9j6Pd6zYEi-29">
          <mxGeometry y="80" width="130" height="160" as="geometry" />
        </mxCell>
      </root>
    </mxGraphModel>
  </diagram>
</mxfile>
